<?xml version="1.0" standalone="no"?><!DOCTYPE svg PUBLIC "-//W3C//DTD SVG 1.1//EN" "http://www.w3.org/Graphics/SVG/1.1/DTD/svg11.dtd"><svg width="100%" height="100%" viewBox="0 0 318 77" version="1.1" xmlns="http://www.w3.org/2000/svg" xmlns:xlink="http://www.w3.org/1999/xlink" xml:space="preserve" style="fill-rule:evenodd;clip-rule:evenodd;stroke-linecap:round;stroke-linejoin:round;stroke-miterlimit:1.41421;"><g id="button"><path d="M317.014,38.25c0,-20.973 -17.027,-38 -38,-38l-240.028,0c-20.973,0 -38,17.027 -38,38c0,20.973 17.027,38 38,38l240.028,0c20.973,0 38,-17.027 38,-38Z" style="fill:#fedd00;"/><g><path d="M71.706,28.724l3.03,0l-4.811,14.153l-3.272,0l-4.802,-14.153l3.03,0l2.662,8.422c0.149,0.497 0.302,1.077 0.46,1.738c0.158,0.662 0.257,1.121 0.296,1.38c0.071,-0.594 0.313,-1.633 0.726,-3.118l2.681,-8.422Z" style="fill:#fff;fill-rule:nonzero;"/><path d="M78.142,29.257c0,-0.962 0.536,-1.443 1.607,-1.443c1.071,0 1.607,0.481 1.607,1.443c0,0.458 -0.134,0.814 -0.402,1.069c-0.268,0.255 -0.669,0.383 -1.205,0.383c-1.071,0 -1.607,-0.484 -1.607,-1.452ZM81.22,42.877l-2.952,0l0,-10.823l2.952,0l0,10.823Z" style="fill:#fff;fill-rule:nonzero;"/><path d="M90.783,33.952c-0.626,0 -1.117,0.198 -1.472,0.595c-0.354,0.397 -0.558,0.96 -0.609,1.689l4.143,0c-0.013,-0.729 -0.203,-1.292 -0.571,-1.689c-0.368,-0.397 -0.865,-0.595 -1.491,-0.595ZM91.199,43.071c-1.742,0 -3.104,-0.481 -4.085,-1.442c-0.981,-0.962 -1.471,-2.324 -1.471,-4.086c0,-1.813 0.453,-3.215 1.36,-4.206c0.906,-0.991 2.16,-1.486 3.761,-1.486c1.529,0 2.72,0.436 3.572,1.307c0.852,0.871 1.278,2.075 1.278,3.611l0,1.433l-6.98,0c0.032,0.839 0.281,1.494 0.745,1.965c0.465,0.471 1.117,0.706 1.956,0.706c0.652,0 1.268,-0.067 1.849,-0.203c0.581,-0.135 1.187,-0.352 1.82,-0.648l0,2.284c-0.517,0.258 -1.068,0.45 -1.656,0.576c-0.587,0.126 -1.303,0.189 -2.149,0.189Z" style="fill:#fff;fill-rule:nonzero;"/><path d="M108.894,42.877l-0.833,-3.785l-1.123,-4.782l-0.068,0l-1.975,8.567l-3.175,0l-3.078,-10.823l2.943,0l1.249,4.792c0.2,0.859 0.403,2.043 0.609,3.553l0.058,0c0.026,-0.49 0.139,-1.268 0.339,-2.333l0.155,-0.823l1.336,-5.189l3.253,0l1.268,5.189c0.026,0.142 0.066,0.352 0.121,0.629c0.055,0.278 0.108,0.573 0.16,0.886c0.051,0.313 0.098,0.62 0.14,0.92c0.042,0.3 0.066,0.54 0.073,0.721l0.058,0c0.058,-0.465 0.161,-1.102 0.31,-1.912c0.148,-0.81 0.255,-1.357 0.319,-1.641l1.297,-4.792l2.895,0l-3.117,10.823l-3.214,0Z" style="fill:#fff;fill-rule:nonzero;"/><path d="M140.089,42.877l-0.571,-1.471l-0.078,0c-0.497,0.626 -1.008,1.06 -1.534,1.302c-0.526,0.242 -1.212,0.363 -2.057,0.363c-1.039,0 -1.857,-0.297 -2.454,-0.891c-0.597,-0.593 -0.896,-1.439 -0.896,-2.536c0,-1.149 0.402,-1.996 1.205,-2.541c0.804,-0.546 2.016,-0.847 3.635,-0.905l1.878,-0.058l0,-0.475c0,-1.097 -0.561,-1.645 -1.684,-1.645c-0.865,0 -1.881,0.261 -3.049,0.784l-0.978,-1.995c1.245,-0.651 2.627,-0.977 4.143,-0.977c1.452,0 2.566,0.316 3.34,0.948c0.775,0.633 1.162,1.594 1.162,2.885l0,7.212l-2.062,0ZM139.217,37.863l-1.142,0.038c-0.858,0.026 -1.497,0.181 -1.917,0.465c-0.419,0.284 -0.629,0.717 -0.629,1.297c0,0.833 0.478,1.249 1.433,1.249c0.684,0 1.231,-0.197 1.641,-0.59c0.41,-0.394 0.614,-0.917 0.614,-1.569l0,-0.89Z" style="fill:#fff;fill-rule:nonzero;"/><rect x="147.173" y="27.814" width="2.953" height="15.063" style="fill:#fff;fill-rule:nonzero;"/><rect x="155.206" y="27.814" width="2.953" height="15.063" style="fill:#fff;fill-rule:nonzero;"/><path d="M177.245,42.877l-0.571,-1.471l-0.077,0c-0.497,0.626 -1.009,1.06 -1.535,1.302c-0.526,0.242 -1.211,0.363 -2.057,0.363c-1.039,0 -1.857,-0.297 -2.454,-0.891c-0.597,-0.593 -0.895,-1.439 -0.895,-2.536c0,-1.149 0.401,-1.996 1.205,-2.541c0.803,-0.546 2.015,-0.847 3.635,-0.905l1.878,-0.058l0,-0.475c0,-1.097 -0.562,-1.645 -1.684,-1.645c-0.865,0 -1.882,0.261 -3.05,0.784l-0.978,-1.995c1.246,-0.651 2.627,-0.977 4.144,-0.977c1.452,0 2.565,0.316 3.34,0.948c0.774,0.633 1.161,1.594 1.161,2.885l0,7.212l-2.062,0ZM176.374,37.863l-1.142,0.038c-0.859,0.026 -1.498,0.181 -1.917,0.465c-0.42,0.284 -0.629,0.717 -0.629,1.297c0,0.833 0.477,1.249 1.432,1.249c0.684,0 1.231,-0.197 1.641,-0.59c0.41,-0.394 0.615,-0.917 0.615,-1.569l0,-0.89Z" style="fill:#fff;fill-rule:nonzero;"/><path d="M190.37,31.851c0.4,0 0.733,0.029 0.997,0.087l-0.222,2.769c-0.239,-0.065 -0.529,-0.097 -0.871,-0.097c-0.943,0 -1.677,0.242 -2.203,0.726c-0.526,0.484 -0.789,1.162 -0.789,2.033l0,5.508l-2.952,0l0,-10.823l2.236,0l0.435,1.82l0.146,0c0.335,-0.606 0.789,-1.095 1.36,-1.466c0.571,-0.371 1.192,-0.557 1.863,-0.557Z" style="fill:#fff;fill-rule:nonzero;"/><path d="M199.875,40.719c0.516,0 1.136,-0.113 1.859,-0.339l0,2.197c-0.736,0.329 -1.64,0.494 -2.711,0.494c-1.181,0 -2.041,-0.298 -2.58,-0.895c-0.539,-0.597 -0.808,-1.493 -0.808,-2.687l0,-5.218l-1.414,0l0,-1.249l1.627,-0.987l0.852,-2.285l1.887,0l0,2.304l3.03,0l0,2.217l-3.03,0l0,5.218c0,0.42 0.118,0.729 0.354,0.929c0.235,0.201 0.547,0.301 0.934,0.301Z" style="fill:#fff;fill-rule:nonzero;"/><path d="M205.778,29.257c0,-0.962 0.536,-1.443 1.607,-1.443c1.071,0 1.607,0.481 1.607,1.443c0,0.458 -0.134,0.814 -0.402,1.069c-0.267,0.255 -0.669,0.383 -1.205,0.383c-1.071,0 -1.607,-0.484 -1.607,-1.452ZM208.857,42.877l-2.953,0l0,-10.823l2.953,0l0,10.823Z" style="fill:#fff;fill-rule:nonzero;"/><path d="M218.332,43.071c-3.369,0 -5.053,-1.849 -5.053,-5.547c0,-1.839 0.458,-3.245 1.374,-4.216c0.917,-0.971 2.23,-1.457 3.94,-1.457c1.252,0 2.375,0.245 3.369,0.736l-0.871,2.284c-0.465,-0.187 -0.897,-0.34 -1.297,-0.459c-0.4,-0.12 -0.8,-0.179 -1.201,-0.179c-1.536,0 -2.304,1.09 -2.304,3.272c0,2.116 0.768,3.175 2.304,3.175c0.568,0 1.094,-0.076 1.578,-0.228c0.484,-0.151 0.968,-0.388 1.453,-0.711l0,2.526c-0.478,0.304 -0.96,0.514 -1.448,0.63c-0.487,0.116 -1.102,0.174 -1.844,0.174Z" style="fill:#fff;fill-rule:nonzero;"/><rect x="226.113" y="27.814" width="2.953" height="15.063" style="fill:#fff;fill-rule:nonzero;"/><path d="M238.629,33.952c-0.626,0 -1.117,0.198 -1.472,0.595c-0.355,0.397 -0.558,0.96 -0.61,1.689l4.144,0c-0.013,-0.729 -0.204,-1.292 -0.572,-1.689c-0.367,-0.397 -0.864,-0.595 -1.49,-0.595ZM239.045,43.071c-1.743,0 -3.104,-0.481 -4.085,-1.442c-0.981,-0.962 -1.472,-2.324 -1.472,-4.086c0,-1.813 0.454,-3.215 1.36,-4.206c0.907,-0.991 2.161,-1.486 3.761,-1.486c1.53,0 2.721,0.436 3.572,1.307c0.852,0.871 1.278,2.075 1.278,3.611l0,1.433l-6.979,0c0.032,0.839 0.28,1.494 0.745,1.965c0.465,0.471 1.116,0.706 1.955,0.706c0.652,0 1.269,-0.067 1.849,-0.203c0.581,-0.135 1.188,-0.352 1.82,-0.648l0,2.284c-0.516,0.258 -1.068,0.45 -1.655,0.576c-0.587,0.126 -1.304,0.189 -2.149,0.189Z" style="fill:#fff;fill-rule:nonzero;"/><path d="M255.394,39.663c0,1.11 -0.386,1.956 -1.157,2.537c-0.771,0.581 -1.925,0.871 -3.461,0.871c-0.787,0 -1.459,-0.053 -2.014,-0.16c-0.555,-0.106 -1.074,-0.263 -1.558,-0.469l0,-2.44c0.548,0.258 1.166,0.475 1.854,0.649c0.687,0.174 1.292,0.261 1.815,0.261c1.071,0 1.607,-0.31 1.607,-0.929c0,-0.232 -0.071,-0.421 -0.213,-0.566c-0.142,-0.146 -0.387,-0.31 -0.736,-0.494c-0.348,-0.184 -0.813,-0.399 -1.394,-0.644c-0.832,-0.348 -1.444,-0.671 -1.834,-0.968c-0.391,-0.297 -0.675,-0.637 -0.852,-1.021c-0.178,-0.384 -0.267,-0.857 -0.267,-1.419c0,-0.961 0.373,-1.705 1.119,-2.231c0.745,-0.526 1.802,-0.789 3.17,-0.789c1.304,0 2.572,0.284 3.805,0.852l-0.891,2.13c-0.542,-0.233 -1.049,-0.423 -1.52,-0.571c-0.471,-0.149 -0.952,-0.223 -1.442,-0.223c-0.872,0 -1.307,0.235 -1.307,0.707c0,0.264 0.14,0.493 0.421,0.687c0.281,0.194 0.895,0.481 1.844,0.861c0.845,0.343 1.465,0.662 1.859,0.959c0.393,0.297 0.684,0.639 0.871,1.026c0.187,0.387 0.281,0.849 0.281,1.384Z" style="fill:#fff;fill-rule:nonzero;"/></g><path d="M279.336,66.272c0,0 14.287,-1.921 21.43,-15.327" style="fill:none;stroke-width:4px;stroke:#fff;"/></g></svg>