<?xml version="1.0" standalone="no"?><!DOCTYPE svg PUBLIC "-//W3C//DTD SVG 1.1//EN" "http://www.w3.org/Graphics/SVG/1.1/DTD/svg11.dtd"><svg width="100%" height="100%" viewBox="0 0 335 87" version="1.1" xmlns="http://www.w3.org/2000/svg" xmlns:xlink="http://www.w3.org/1999/xlink" xml:space="preserve" style="fill-rule:evenodd;clip-rule:evenodd;stroke-linecap:round;stroke-linejoin:round;stroke-miterlimit:1.41421;"><g id="button1"><path d="M332.637,48.244c0,-20.973 -17.027,-38 -38,-38l-256.029,0c-20.973,0 -38,17.027 -38,38c0,20.973 17.027,38 38,38l256.029,0c20.973,0 38,-17.027 38,-38Z" style="fill:#fedd00;"/><text x="49.098px" y="52.871px" style="font-family:Open Sans;font-size:19.826px;font-weight:700;fill:#fff;">V<tspan x="63.965px 71.998px 85.695px 104.648px 111.78px 125.738px 133.771px 141.804px 148.937px 170.387px 183.648px 190.781px 205.309px 216.295px 230.553px 238.586px 252.282px 264.459px 275.047px " y="52.871px 52.871px 52.871px 52.871px 52.871px 52.871px 52.871px 52.871px 52.871px 52.871px 52.871px 52.871px 52.871px 52.871px 52.871px 52.871px 52.871px 52.871px 52.871px ">iew all my projects</tspan></text><path d="M297.641,76.266c0,0 14.287,-1.921 21.431,-15.328" style="fill:none;stroke-width:4px;stroke:#fff;"/></g></svg>