<?xml version="1.0" standalone="no"?><!DOCTYPE svg PUBLIC "-//W3C//DTD SVG 1.1//EN" "http://www.w3.org/Graphics/SVG/1.1/DTD/svg11.dtd"><svg width="100%" height="100%" viewBox="0 0 382 62" version="1.1" xmlns="http://www.w3.org/2000/svg" xmlns:xlink="http://www.w3.org/1999/xlink" xml:space="preserve" style="fill-rule:evenodd;clip-rule:evenodd;stroke-linecap:round;stroke-linejoin:round;stroke-miterlimit:1.41421;"><g id="email"><path d="M381.531,30.511c0,-16.86 -13.688,-30.531 -30.547,-30.511l-319.968,0.389c-16.859,0.021 -30.547,13.725 -30.547,30.585c0,16.859 13.688,30.531 30.547,30.51l319.968,-0.389c16.859,-0.02 30.547,-13.725 30.547,-30.584Z" style="fill:#323333;"/><text x="49.381px" y="34.462px" style="font-family:Open Sans;font-size:15.938px;font-weight:700;fill:#fff;">g<tspan x="59.979px 68.81px 79.82px 90.418px 101.879px 110.71px 121.37px 127.509px 138.169px 149.179px 160.656px 171.666px 188.91px 200.13px 212.199px 221.715px 237.604px 248.202px 265.445px 276.666px 283.123px 289.581px 295.719px 305.508px 316.969px " y="34.462px 34.462px 34.462px 34.462px 34.462px 34.462px 34.462px 34.462px 34.462px 34.462px 34.462px 34.462px 34.462px 34.462px 34.462px 34.462px 34.462px 34.462px 34.462px 34.462px 34.462px 34.462px 34.462px 34.462px 34.462px ">regory.vekemans@gmail.com</tspan></text><path d="M350.49,51.033c0,0 11.485,-1.544 17.227,-12.322" style="fill:none;stroke-width:4px;stroke:#fff;"/></g></svg>