<?xml version="1.0" standalone="no"?>
<!DOCTYPE svg PUBLIC "-//W3C//DTD SVG 1.1//EN" "http://www.w3.org/Graphics/SVG/1.1/DTD/svg11.dtd">
<svg width="100%" height="100%" viewBox="0 0 129 13" version="1.1" xmlns="http://www.w3.org/2000/svg" xmlns:xlink="http://www.w3.org/1999/xlink" xml:space="preserve" style="fill-rule:evenodd;clip-rule:evenodd;stroke-linecap:round;stroke-linejoin:round;stroke-miterlimit:1.41421;">
    <g transform="matrix(1,0,0,1,-652,-1010)">
        <g transform="matrix(1,0,0,1,0,2820)">
            <g id="line">
                <g transform="matrix(0.295182,0,0,0.264538,532.162,-2066.73)">
                    <path d="M413,1013L440,980.367L465,1013" style="fill:none;stroke-width:7.14px;stroke:rgb(50,51,51);"/>
                </g>
                <g transform="matrix(0.295182,0,0,0.264538,594.525,-2066.73)">
                    <path d="M413,1013L440,980.367L465,1013" style="fill:none;stroke-width:7.14px;stroke:rgb(50,51,51);"/>
                </g>
                <g transform="matrix(0.295182,0,0,0.264538,563.236,-2066.73)">
                    <path d="M413,1013L440,980.367L465,1013" style="fill:none;stroke-width:7.14px;stroke:rgb(50,51,51);"/>
                </g>
                <g transform="matrix(0.295182,0,0,0.264538,625.599,-2066.73)">
                    <path d="M413,1013L440,980.367L465,1013" style="fill:none;stroke-width:7.14px;stroke:rgb(50,51,51);"/>
                </g>
                <g transform="matrix(0.295182,0,0,0.264538,547.851,-2066.73)">
                    <path d="M413,1013L440,980.367L465,1013" style="fill:none;stroke-width:7.14px;stroke:rgb(50,51,51);"/>
                </g>
                <g transform="matrix(0.295182,0,0,0.264538,610.214,-2066.73)">
                    <path d="M413,1013L440,980.367L465,1013" style="fill:none;stroke-width:7.14px;stroke:rgb(50,51,51);"/>
                </g>
                <g transform="matrix(0.295182,0,0,0.264538,578.925,-2066.73)">
                    <path d="M413,1013L440,980.367L465,1013" style="fill:none;stroke-width:7.14px;stroke:rgb(50,51,51);"/>
                </g>
                <g transform="matrix(0.295182,0,0,0.264538,641.288,-2066.73)">
                    <path d="M413,1013L440,980.367L465,1013" style="fill:none;stroke-width:7.14px;stroke:rgb(50,51,51);"/>
                </g>
            </g>
        </g>
    </g>
</svg>
